<svg id="Layer_1" data-name="Layer 1" xmlns="http://www.w3.org/2000/svg" viewBox="0 0 194.46 203.52"><path id="middle" d="M978.8,507.38a381.45,381.45,0,0,0-38.26.05c-5.82,11.16-13.16,21.62-18.55,32.92l19,32h37.49c6.36-10.78,12.56-21.52,18.73-32.4C991.34,528.87,984.71,518.47,978.8,507.38Z" transform="translate(-862.38 -436.76)"/><path id="left" d="M929.73,491.16c1.71,3,3.37,6,5.07,9,.59,1,1.21,2,1.84,3.08-6.22,10.77-12.39,21.45-18.55,32.13H881l-18.57-32.14L881,471.11H918c.64,1,1.33,2.09,2,3.19,1,1.69,1.9,3.42,2.87,5.12" transform="translate(-862.38 -436.76)"/><path id="leftDown" d="M862.38,574.44l18.56-32.08H918c6.33,10.6,12.33,21.43,18.59,32.1q-9.33,16.14-18.55,32.12H881Z" transform="translate(-862.38 -436.76)"/><path id="down" d="M923.87,608.15c6.21-10.75,12.37-21.4,18.56-32.09H979.5c6.33,10.6,12.33,21.44,18.59,32.1q-9.33,16.14-18.55,32.12h-37.1Z" transform="translate(-862.38 -436.76)"/><path id="rightDown" d="M982.48,573.15,1001,541.06h37.07c6.34,10.6,12.34,21.44,18.6,32.1l-18.56,32.12h-37.1Z" transform="translate(-862.38 -436.76)"/><path id="right" d="M982.61,504.72l18.56-32.09h37.07c6.33,10.61,12.34,21.44,18.6,32.1l-18.56,32.13h-37.1Z" transform="translate(-862.38 -436.76)"/><path id="top" d="M922.63,468.85c6.22-10.75,12.38-21.39,18.56-32.09h37.07c6.34,10.61,12.34,21.44,18.6,32.1L978.3,501H941.2Z" transform="translate(-862.38 -436.76)"/></svg>