<svg id="Layer_1" data-name="Layer 1" xmlns="http://www.w3.org/2000/svg" viewBox="0 0 364.32 485.45"><path id="Circle" d="M638,563.44c-51.57-27.09-85.6-68.46-97.4-125.71-21.33-103.52,44.26-196.24,139.89-216,101.16-20.95,195.39,40.79,216.48,141.92,16.08,77.1-18.27,153.72-87.55,194.08l-10,5.78.29.33V501.57h-162v62.2ZM678.7,359.88l39.9,79.75c13.7-27.54,26.46-53.17,39.68-79.75Z" transform="translate(-536.53 -217.62)"/><path id="partDown" d="M799.42,563.47c0,19.95-.33,39.91,0,59.85.77,41.08-36,79.57-80.39,79.74-46.88.19-82.09-40.09-81.29-78.72.43-20.29.15-40.6.19-60.9l-.3.33a85.4,85.4,0,0,1,8.83,2.78c32.59,14.1,66.56,18.48,101.33,12,17.59-3.29,34.61-9.73,51.88-14.74Z" transform="translate(-536.53 -217.62)"/></svg>