<svg id="Layer_1" data-name="Layer 1" xmlns="http://www.w3.org/2000/svg" viewBox="0 0 41.42 31.28"><path id="plant" d="M950.94,521.7c6.5-.41,11.93,4.42,13.62,12a30.05,30.05,0,0,1,1.62-4.48,15.2,15.2,0,0,1,3-4,14.59,14.59,0,0,1,4.22-2.65,32.15,32.15,0,0,1,5.06-1.21c-.17,5.1-2.09,8.89-6,11.52a13.32,13.32,0,0,1-15,.5C953.28,531,950.43,525.76,950.94,521.7Z" transform="translate(-943.96 -521.36)"/><path id="hand" d="M954.3,552.55V539.13c.06,0,.12-.15.18-.15,3.55,0,7.1-.09,10.66,0a3,3,0,0,1,2.76,2.31,3.28,3.28,0,0,1-.89,3.52,9.16,9.16,0,0,0-.91.88c2.12-.07,4.3.66,6.35-.34,3.92-1.89,7.79-3.88,11.68-5.83.35-.17.71-.33,1.25-.57,0,2.25,0,4.38,0,6.51,0,.22-.32.52-.57.64q-6.3,3.18-12.64,6.32a2.18,2.18,0,0,1-.91.22H954.81A4,4,0,0,1,954.3,552.55Z" transform="translate(-943.96 -521.36)"/><path id="arm" d="M950.7,552.59H944V539h6.74Z" transform="translate(-943.96 -521.36)"/></svg>