<svg id="Layer_1" data-name="Layer 1" xmlns="http://www.w3.org/2000/svg" viewBox="0 0 41.26 44.8"><path id="wheel" d="M965,543.7l-2.64-2.58-3.4,1.41v3.78H955.2v-3.78l-3.42-1.4-2.64,2.56-2.63-2.56,2.6-2.68-1.4-3.36c-1.12-.24-2.41,0-3.73-.15v-3.59h3.69l1.45-3.48-2.68-2.71,2.84-2.42,2.48,2.46,3.44-1.4v-3.67h3.72v3.64l3.52,1.48,2.42-2.75,2.73,2.76L965,527.87l1.42,3.39h3.74V535h-3.69L965,538.45l2.59,2.64Zm-7.93-6.76a3.78,3.78,0,1,0-3.81-3.78A3.82,3.82,0,0,0,957.06,536.94Z" transform="translate(-943.98 -520.13)"/><path id="Check" d="M981.58,535.14c1.33,1.13,2.48,2.43,3.66,3.58L959,564.92c-4.89-4.9-9.88-9.89-14.85-14.85l3.58-3.48,11.15,11.14C966.57,550.29,974,542.65,981.58,535.14Z" transform="translate(-943.98 -520.13)"/></svg>