<?xml version="1.0" encoding="utf-8"?>
<!-- Generator: Adobe Illustrator 24.1.2, SVG Export Plug-In . SVG Version: 6.00 Build 0)  -->
<svg version="1.1" id="Layer_1" xmlns="http://www.w3.org/2000/svg" xmlns:xlink="http://www.w3.org/1999/xlink" x="0px" y="0px" viewBox="0 0 194.5 203.5" style="enable-background:new 0 0 194.5 203.5;" xml:space="preserve">
	<style type="text/css">
	.st0{fill:#FFED00;}
	.st1{fill:#FFFFFF;}
	.st2{font-family:"GT-Walsheim-Pro-Bold";}
	.st3{font-size:9px;}
	</style>
	<path id="middle" class="st0" d="M116.4,70.6c-12.7-0.6-25.5-0.6-38.3,0C72.3,81.8,65,92.3,59.6,103.6l19,32h37.5
	c6.4-10.8,12.6-21.5,18.7-32.4C129,92.1,122.3,81.7,116.4,70.6z"/>
	<path id="left" d="M67.3,54.4c1.7,3,3.4,6,5.1,9c0.6,1,1.2,2,1.8,3.1C68,77.2,61.9,87.9,55.7,98.6H18.6L0,66.5l18.6-32.1h37
	c0.6,1,1.3,2.1,2,3.2c1,1.7,1.9,3.4,2.9,5.1"/>
	<path id="leftDown" d="M0,137.7l18.6-32.1h37.1C62,116.2,68,127,74.2,137.7c-6.2,10.8-12.4,21.5-18.5,32.1h-37L0,137.7z"/>
	<path id="down" d="M61.5,171.4c6.2-10.8,12.4-21.4,18.6-32.1h37.1c6.3,10.6,12.3,21.4,18.6,32.1c-6.2,10.8-12.4,21.5-18.5,32.1H80.1
	L61.5,171.4z"/>
	<path id="rightDown" d="M120.1,136.4l18.5-32.1h37.1c6.3,10.6,12.3,21.4,18.6,32.1l-18.6,32.1h-37.1L120.1,136.4z"/>
	<path id="right" d="M120.2,68l18.6-32.1h37.1c6.3,10.6,12.3,21.4,18.6,32.1l-18.6,32.1h-37.1L120.2,68z"/>
	<path id="top" d="M60.2,32.1C66.5,21.3,72.6,10.7,78.8,0h37.1c6.3,10.6,12.3,21.4,18.6,32.1l-18.6,32.1H78.8L60.2,32.1z"/>
	<text transform="matrix(1 0 0 1 13.541 67.4857)">
		<tspan x="0" y="0" class="st1 st2 st3">End-to-end</tspan>
		<tspan x="6.6" y="10.8" class="st1 st2 st3">security</tspan>
	</text>
	<text transform="matrix(1 0 0 1 79.83 29.2604)">
		<tspan x="0" y="0" class="st1 st2 st3">Business</tspan>
		<tspan x="0.9" y="10.8" class="st1 st2 st3">benefits</tspan>
	</text>
	<text transform="matrix(1 0 0 1 139.1213 67.4765)">
		<tspan x="0" y="0" class="st1 st2 st3">Strategic</tspan>
		<tspan x="-2.6" y="10.8" class="st1 st2 st3">alignment</tspan>
	</text>
	<text transform="matrix(1 0 0 1 139.5708 130.4894)">
		<tspan x="0" y="0" class="st1 st2 st3">Business</tspan>
		<tspan x="1.7" y="10.8" class="st1 st2 st3">process</tspan>
		<tspan x="6" y="21.6" class="st1 st2 st3">focus</tspan>
	</text>
	<text transform="matrix(1 0 0 1 78.057 166.5341)">
		<tspan x="0" y="0" class="st1 st2 st3">Operating</tspan>
		<tspan x="7" y="10.8" class="st1 st2 st3">model</tspan>
		<tspan x="3.4" y="21.6" class="st1 st2 st3">changes</tspan>
	</text>
	<text transform="matrix(1 0 0 1 15.7318 136.9308)">
		<tspan x="0" y="0" class="st1 st2 st3">Capability</tspan>
		<tspan x="8.9" y="10.8" class="st1 st2 st3">uplift</tspan>
	</text>
	<text transform="matrix(1 0 0 1 89.1167 91.5822)">
		<tspan x="0" y="0" class="st2 st3">IoT</tspan>
		<tspan x="-6.5" y="10.8" class="st2 st3">critical</tspan>
		<tspan x="-8.3" y="21.6" class="st2 st3">success</tspan>
		<tspan x="-6.9" y="32.4" class="st2 st3">factors</tspan>
	</text>
</svg>
