<svg id="Layer_1" data-name="Layer 1" xmlns="http://www.w3.org/2000/svg" viewBox="0 0 488.49 405.26"><path id="arrowSecond" d="M988.9,475.84C968.5,358.77,916,294.89,826.63,276.91c-78.8-15.86-166.81,17.3-204.83,77.73l24.23,32c62.9-85.16,155.69-85.77,213.24-55.38,54.35,28.71,95.63,97.91,85,145.14h-37.7c21.46,28.61,40.54,54.07,60.54,80.74,20.13-26.85,39.34-52.47,61-81.28Z" transform="translate(-539.59 -272.97)"/><path id="head" d="M783.44,496.18A81.37,81.37,0,1,0,702.92,414C702.55,459.38,738.42,496,783.44,496.18Z" transform="translate(-539.59 -272.97)"/><path id="body" d="M833.71,527.51c-24.81-11.1-50.65-13.91-77.07-7.65-22.35,5.23-43.25,16.52-59.24,33.06a130.79,130.79,0,0,0-11.08,12.93c-1.11,1.47-2.2,3-3.26,4.51a.36.36,0,0,0-.07.1c-.87,1.26-1.72,2.58-2.56,3.88-.35.55-.72,1.08-1.07,1.63a.86.86,0,0,0-.1.16c-1.19,1.89-2.35,3.83-3.48,5.8h0c-2,3.49-3.9,7.06-5.7,10.79l-.08-.09-.07-.08c-9,18.68-12,35.64-12.3,49.46h0a2.44,2.44,0,0,0,.1.24c-.09,3.74,0,7.23.22,10.44.95,14.3,4.32,23.12,4.32,23.12-.1.67.9,1.5,1.47,2.4H905C913.56,605.4,888,551.8,833.71,527.51Z" transform="translate(-539.59 -272.97)"/><path id="arrowFirst" d="M664.18,586.35c-27.66-30.25-43.3-69.46-43-110.36h40.38l-61-81.3-60.95,81.39h39.69C584.16,560.18,609.54,582,657.63,642c.27-13.82,3.28-30.78,12.3-49.46C668,590.51,666,588.43,664.18,586.35Z" transform="translate(-539.59 -272.97)"/></svg>